<svg width="30.937500" height="30.937500" viewBox="0 0 30.9375 30.9375" fill="none" xmlns="http://www.w3.org/2000/svg" xmlns:xlink="http://www.w3.org/1999/xlink">
	<desc>
			Created with Pixso.
	</desc>
	<defs/>
	<path id="Icon" d="M26.4067 4.5307C23.4852 1.60901 19.6005 0 15.4688 0C11.337 0 7.45227 1.60901 4.53076 4.5307C1.60901 7.45227 0 11.337 0 15.4688C0 19.6005 1.60901 23.4852 4.53076 26.4068C7.45227 29.3285 11.337 30.9375 15.4688 30.9375C19.6005 30.9375 23.4852 29.3285 26.4067 26.4068C29.3286 23.4852 30.9375 19.6005 30.9375 15.4688C30.9375 11.337 29.3286 7.45227 26.4067 4.5307ZM15.4688 28.5205C8.27222 28.5205 2.41699 22.6653 2.41699 15.4688C2.41699 8.27216 8.27222 2.41699 15.4688 2.41699C22.6653 2.41699 28.5205 8.27216 28.5205 15.4688C28.5205 22.6653 22.6653 28.5205 15.4688 28.5205ZM17.7853 16.1589L22.1824 20.5335L20.4775 22.2473L16.0278 17.8198C15.8483 17.8627 15.6614 17.8857 15.4688 17.8857C14.1339 17.8857 13.0518 16.8036 13.0518 15.4688C13.0518 14.5994 13.511 13.8375 14.1998 13.4117L14.1998 4.89441L15.4083 4.89441L16.6168 4.89441L16.6168 13.3414C17.3723 13.7502 17.8857 14.5494 17.8857 15.4688C17.8857 15.7086 17.8502 15.9401 17.7853 16.1589Z" fill="#E2E6E9" fill-opacity="1.000000" fill-rule="nonzero"/>
</svg>
