<svg width="24.000000" height="24.000000" viewBox="0 0 24 24" fill="none" xmlns="http://www.w3.org/2000/svg" xmlns:xlink="http://www.w3.org/1999/xlink">
	<desc>
			Created with Pixso.
	</desc>
	<defs>
		<filter id="filter_703_94_dd" x="0.000000" y="0.000000" width="24.000000" height="24.000000" filterUnits="userSpaceOnUse" color-interpolation-filters="sRGB">
			<feFlood flood-opacity="0" result="BackgroundImageFix"/>
			<feGaussianBlur in="BackgroundImage" stdDeviation="26.6667"/>
			<feComposite in2="SourceAlpha" operator="in" result="effect_backgroundBlur_1"/>
			<feBlend mode="normal" in="SourceGraphic" in2="effect_backgroundBlur_1" result="shape"/>
		</filter>
	</defs>
	<g filter="url(#filter_703_94_dd)">
		<path id="Vector" d="M0 12C0 5.37256 5.37256 0 12 0C18.6274 0 24 5.37256 24 12C24 18.6274 18.6274 24 12 24C5.37256 24 0 18.6274 0 12Z" fill="#1E1B1B" fill-opacity="1.000000" fill-rule="evenodd"/>
	</g>
	<path id="Vector" d="M8.99268 13.7144L8.99268 10.1801C8.99268 8.67334 8.99268 7.91998 9.4834 7.62964C9.97412 7.33923 10.6345 7.70178 11.9551 8.42688L14.9846 10.0901C16.323 10.825 16.9924 11.1924 17.0071 11.7668C17.0217 12.3412 16.3723 12.7424 15.073 13.5449L12.0437 15.416C10.6936 16.2499 10.0186 16.6668 9.50562 16.3807C8.99268 16.0947 8.99268 15.3013 8.99268 13.7144Z" fill="#FFFFFF" fill-opacity="1.000000" fill-rule="evenodd"/>
</svg>
