<svg width="121.409180" height="27.434750" viewBox="0 0 121.409 27.4347" fill="none" xmlns="http://www.w3.org/2000/svg" xmlns:xlink="http://www.w3.org/1999/xlink">
	<desc>
			Created with Pixso.
	</desc>
	<defs/>
	<path id="Logo" d="M1.90601 4.662L1.90601 10.2626C1.90601 11.1813 1.90601 12.2132 0 12.2132L0 13.7264L0 13.7468L0 15.2221C1.90601 15.2221 1.90601 16.2534 1.90601 17.1727L1.90601 22.7728C1.90601 27.1192 4.28735 27.4347 8.33667 27.4347L8.33667 24.0543C6.43066 24.0543 5.71667 23.7738 5.71667 22.6893L5.71667 17.1442C5.71667 15.8637 5.80457 14.5262 4.68689 13.7171C5.80457 12.9092 5.71667 11.5716 5.71667 10.29L5.71667 4.746C5.71667 3.66275 6.43127 3.381 8.33667 3.381L8.33667 0C4.28735 -0.000581741 1.90601 0.315002 1.90601 4.662ZM12.6216 4.48058C11.5804 5.36025 11.0602 6.62375 11.0602 8.26992L11.0602 9.74867L8.88501 9.74867L8.88501 12.8386L11.0602 12.8386L11.0602 24.0362L15.7865 24.0362L15.7865 12.8386L18.7145 12.8386L18.7145 9.74867L15.7865 9.74867L15.7865 8.694C15.7865 8.15733 15.9443 7.74375 16.2601 7.45325C16.5758 7.16275 17.0273 7.01809 17.6128 7.01809C17.9005 7.01809 19.3699 7.02275 19.3699 7.02275L19.3699 3.437C19.3699 3.437 16.7463 3.40842 16.3713 3.40842C15.2302 3.40842 13.6628 3.59975 12.6216 4.48058ZM21.4487 7.00992L26.1755 7.00992L26.1755 3.437L21.4487 3.437L21.4487 7.00992ZM21.4487 24.0368L26.1755 24.0368L26.1755 9.74867L21.4487 9.74867L21.4487 24.0368ZM37.8313 9.48442C36.9392 9.48442 36.1299 9.68508 35.405 10.0853C34.6802 10.4854 34.0715 11.0431 33.5786 11.7553L33.3975 9.74867L28.9773 9.74867L28.9773 24.0362L33.6763 24.0362L33.6763 13.7637C33.9177 13.4995 34.2085 13.2913 34.5476 13.1431C34.8867 12.9949 35.2747 12.9185 35.7119 12.9185C36.4092 12.9185 36.9368 13.0882 37.2944 13.4266C37.6519 13.7661 37.8313 14.3436 37.8313 15.1632L37.8313 24.0374L42.5439 24.0374L42.5439 15.1766C42.5439 13.1956 42.1277 11.7518 41.2964 10.8447C40.4646 9.93767 39.3091 9.48442 37.8313 9.48442ZM56.7964 16.9919C55.9089 16.31 54.5442 15.7961 52.7041 15.4531C51.533 15.2431 50.7539 15.0039 50.3687 14.7397C49.9829 14.4766 49.7898 14.154 49.7898 13.776C49.7898 13.3793 49.9573 13.0556 50.2915 12.7995C50.6257 12.544 51.0396 12.4157 51.5325 12.4157C52.2017 12.4157 52.6873 12.5615 52.9893 12.852C53.2913 13.1425 53.4426 13.5695 53.4426 14.1324L58.0159 14.1324L58.0439 14.0537C58.1001 12.705 57.5332 11.6089 56.343 10.759C55.1531 9.90908 53.5537 9.48383 51.5461 9.48383C49.6401 9.48383 48.1301 9.9225 47.0142 10.7987C45.8989 11.6748 45.3416 12.7412 45.3416 13.9994C45.3416 15.1877 45.7876 16.1262 46.6799 16.8122C47.5723 17.4994 48.897 18.0052 50.6538 18.3312C51.7693 18.5512 52.5383 18.7997 52.9612 19.0768C53.3845 19.3544 53.5957 19.67 53.5957 20.02C53.5957 20.4517 53.4331 20.7853 53.1077 21.0169C52.7822 21.2503 52.304 21.3687 51.6719 21.3687C50.9099 21.3687 50.3215 21.2176 49.9082 20.9189C49.4944 20.6202 49.2783 20.1314 49.26 19.4536L44.9934 19.4536L44.9661 19.5323C44.9104 20.748 45.479 21.8487 46.6741 22.834C47.8682 23.8204 49.4924 24.3128 51.5469 24.3128C53.5269 24.3128 55.1184 23.8968 56.3223 23.0644C57.5266 22.2326 58.1282 21.175 58.1282 19.8887C58.1282 18.6398 57.6838 17.6738 56.7964 16.9919ZM73.6199 18.0285L73.5361 18.0285L71.0549 9.74983L68.0845 9.74983L65.6306 18.0956L65.5469 18.0956L63.8879 9.74983L59.5378 9.74983L63.0933 24.0374L67.0676 24.0374L69.5347 16.4582L69.6184 16.4582L72.0728 24.0374L76.0605 24.0374L79.6021 9.74983L75.252 9.74983L73.6199 18.0285ZM87.6033 9.48433C85.363 9.47567 83.6399 10.1605 82.4368 11.5383C81.2317 12.9156 80.6301 14.6918 80.6301 16.8659L80.6301 17.3682C80.6301 19.3573 81.2927 21.0128 82.6162 22.3335C83.9407 23.6547 85.7146 24.3145 87.9363 24.3145C89.1353 24.3145 90.2578 24.1628 91.304 23.8589C92.3491 23.5556 93.2026 23.1752 93.8616 22.7173L92.7468 19.9967C91.9287 20.3233 91.2524 20.5514 90.7178 20.6838C90.1826 20.8168 89.469 20.8828 88.5767 20.8828C87.6934 20.8828 86.9878 20.6471 86.458 20.1763C85.9275 19.7038 85.6123 19.1036 85.5095 18.3732L85.5381 18.2933L94.1541 18.2933L94.1541 15.9548C94.1541 13.9656 93.5728 12.39 92.4114 11.2274C91.2512 10.0654 89.6472 9.48433 87.6033 9.48433ZM89.5552 15.5067L85.4976 15.5067L85.4556 15.4414C85.5303 14.6749 85.7373 14.063 86.0769 13.6051C86.4155 13.1483 86.925 12.9191 87.6038 12.9191C88.2729 12.9191 88.7646 13.1127 89.082 13.5001C89.3979 13.8874 89.5564 14.4422 89.5564 15.1637L89.5552 15.5067ZM103.418 9.48433C101.177 9.47567 99.4558 10.1605 98.2512 11.5383C97.0481 12.9156 96.4451 14.6918 96.4451 16.8659L96.4451 17.3682C96.4451 19.3573 97.1079 21.0128 98.4324 22.3335C99.7578 23.6547 101.53 24.3145 103.751 24.3145C104.951 24.3145 106.074 24.1628 107.12 23.8589C108.166 23.5556 109.018 23.1752 109.678 22.7173L108.563 19.9967C107.745 20.3233 107.069 20.5514 106.533 20.6838C105.998 20.8168 105.285 20.8828 104.393 20.8828C103.51 20.8828 102.804 20.6471 102.274 20.1763C101.743 19.7038 101.428 19.1036 101.325 18.3732L101.353 18.2933L109.97 18.2933L109.97 15.9548C109.97 13.9656 109.389 12.39 108.227 11.2274C107.065 10.0654 105.463 9.48433 103.418 9.48433ZM105.369 15.5067L101.313 15.5067L101.271 15.4414C101.345 14.6749 101.552 14.063 101.891 13.6051C102.229 13.1483 102.739 12.9191 103.418 12.9191C104.087 12.9191 104.58 13.1127 104.897 13.5001C105.214 13.8874 105.371 14.4422 105.371 15.1637L105.371 15.5073L105.369 15.5073L105.369 15.5067ZM119.652 20.3309C119.067 20.3309 118.615 20.1862 118.299 19.8958C117.984 19.6053 117.825 19.1905 117.825 18.6538L117.825 12.8637L120.277 12.8637L120.277 9.77258L117.825 9.77258L117.825 3.41425L113.099 3.41425L113.099 9.77258L110.923 9.77258L110.923 12.8637L113.099 12.8637L113.099 19.0779C113.099 20.7241 113.619 21.9876 114.66 22.8684C115.7 23.7498 117.267 23.9406 118.41 23.9406C118.786 23.9406 121.409 23.912 121.409 23.912L121.409 20.3262C121.409 20.3262 119.941 20.3309 119.652 20.3309Z" fill="#1E1B1B" fill-opacity="1.000000" fill-rule="nonzero"/>
</svg>
